

<svg xmlns="http://www.w3.org/2000/svg" viewBox="0 0 841.9 595.3">
<g fill="#61DAFB">
<path d="M0 0 C4.8846525 2.26787438 7.73212562 5.1153475 10 10 C10.75381535 15.5997712 10.77303575 20.33499991 8.375 25.5 C3.80134327 30.3143755 0.6912538 32.25156236 -6 32.5 C-12.6912538 32.25156236 -15.80134327 30.3143755 -20.375 25.5 C-22.77303575 20.33499991 -22.75381535 15.5997712 -22 10 C-17.52212837 0.3553534 -9.85292056 -1.32635469 0 0 Z " fill="#560223" transform="translate(22,0)"/>
<path d="M0 0 C1.51400391 0.01740234 1.51400391 0.01740234 3.05859375 0.03515625 C4.07050781 0.04417969 5.08242188 0.05320312 6.125 0.0625 C7.29869141 0.07990234 7.29869141 0.07990234 8.49609375 0.09765625 C8.16609375 1.08765625 7.83609375 2.07765625 7.49609375 3.09765625 C5.18609375 3.09765625 2.87609375 3.09765625 0.49609375 3.09765625 C0.49609375 4.41765625 0.49609375 5.73765625 0.49609375 7.09765625 C2.47609375 7.09765625 4.45609375 7.09765625 6.49609375 7.09765625 C6.49609375 8.08765625 6.49609375 9.07765625 6.49609375 10.09765625 C4.18609375 10.09765625 1.87609375 10.09765625 -0.50390625 10.09765625 C-0.17390625 12.73765625 0.15609375 15.37765625 0.49609375 18.09765625 C-0.49390625 18.09765625 -1.48390625 18.09765625 -2.50390625 18.09765625 C-2.69774804 15.2854592 -2.88427228 12.47311429 -3.06640625 9.66015625 C-3.12248047 8.85771484 -3.17855469 8.05527344 -3.23632812 7.22851562 C-3.36553575 5.18703514 -3.43903355 3.14219256 -3.50390625 1.09765625 C-2.50390625 0.09765625 -2.50390625 0.09765625 0 0 Z " fill="#DFD0D6" transform="translate(13.50390625,6.90234375)"/>
<path d="M0 0 C0.33 0.99 0.66 1.98 1 3 C3.31 3 5.62 3 8 3 C8 3.66 8 4.32 8 5 C5.69 5 3.38 5 1 5 C1.33 7.64 1.66 10.28 2 13 C1.01 13 0.02 13 -1 13 C-1.0272415 11.58344207 -1.04650467 10.16672955 -1.0625 8.75 C-1.07410156 7.96109375 -1.08570313 7.1721875 -1.09765625 6.359375 C-1.00385306 4.09308998 -0.63241063 2.1711105 0 0 Z " fill="#FAF7F8" transform="translate(12,12)"/>
</g>
</svg>
